<?xml version="1.0" encoding="UTF-8"?>
<svg id="Layer_1" data-name="Layer 1" xmlns="http://www.w3.org/2000/svg" viewBox="0 0 576 131">
  <defs>
    <style>
      .cls-1 {
        fill: #fff;
      }

      .cls-2 {
        fill: none;
      }

      .cls-3 {
        fill: #ef4136;
      }

      .cls-4 {
        fill: #231f20;
      }
    </style>
  </defs>
  <g>
    <path class="cls-4" d="m80.48,67.71c-3.29,0-6.05-.56-8.29-1.69s-4.02-2.72-5.34-4.79c-1.31-2.06-1.97-4.53-1.97-7.42,0-3.16.78-6.05,2.35-8.65,1.57-2.61,3.72-4.6,6.46-5.97,2.73-1.36,5.81-2.05,9.22-2.05,1.57,0,3.28.13,5.11.38,1.84.26,4.23.74,7.2,1.45l-.27-4.33c-.1-1.67-.18-3.2-.23-4.6l-.07-3.18c-5.52-.97-10.15-1.45-13.9-1.45-4.07,0-8.02.53-11.85,1.58-3.82,1.05-7.33,2.8-10.53,5.24s-5.66,5.49-7.37,9.15c-1.71,3.66-2.56,7.78-2.56,12.36,0,3.92.63,7.46,1.9,10.63,1.26,3.16,3.37,5.91,6.32,8.26,1.49,1.18,3.06,2.2,4.7,3.04h.01l31.84-3.91c.42-2.64.79-4.7,1.09-6.18-3.18.84-5.84,1.4-7.95,1.69-2.11.29-4.07.44-5.87.44Z"/>
    <path class="cls-1" d="m93.22,73.76s-.01.03-.01.05c-.43,2.66-.72,4.72-.87,6.19-5.42.81-10.25,1.21-14.5,1.21s-7.92-.51-11.45-1.54c-1.74-.5-3.41-1.17-5.01-2l31.84-3.91Z"/>
    <path class="cls-4" d="m150.02,26.49l-8.98-.08c.05,1.7.07,2.89.07,3.58,0,1.29-.05,3.7-.17,7.24-.11,3.54-.23,6.35-.35,8.43h-20.67c.17-5.57.56-11.99,1.16-19.25-3.82.05-6.51.08-8.06.08-1.97,0-4.95-.03-8.93-.08l.04,3.64c0,1.8-.03,3.68-.08,5.62l-.18,6.72-.68,15.12-.93,13.15,16.7-2.05.35-11.41h20.68c-.09,3.11-.21,6.06-.37,8.87l16.38-2.01c.06-3.1.15-5.97.25-8.62.25-6.34.83-16.02,1.74-29.03-4.38.05-7.03.08-7.97.08Z"/>
    <path class="cls-4" d="m198.6,52.94c-3.19,0-6.58-.05-10.17-.15-.06,2.36-.17,4.8-.34,7.32l20.37-2.5c.09-1.66.21-3.27.35-4.82-3.56.1-6.97.15-10.21.15Z"/>
    <path class="cls-4" d="m260.99,26.49l-8.98-.08c.05,1.7.07,2.89.07,3.58,0,1.29-.05,3.7-.17,7.24-.11,3.54-.23,6.35-.35,8.43h-20.67c.17-5.57.56-11.99,1.16-19.25-3.82.05-6.51.08-8.06.08-1.97,0-4.95-.03-8.93-.08l.04,3.64c0,1.8-.03,3.68-.08,5.62l-.18,6.72-.65,14.52,53.26-6.54c.31-6.05.82-14.03,1.51-23.96-4.38.05-7.03.08-7.97.08Z"/>
    <path class="cls-4" d="m313.73,26.4c-.13,0-.26,2.02-.42,6.06-.15,3.77-.38,7.89-.67,12.35l16.71-2.05,1.12-16.36h-16.74Zm-35.26,0l-.69,15c-.15,3.09-.29,5.43-.42,7.02l-.06.73,16.16-1.98c.08-1.49.19-3.04.31-4.63l1.13-16.14c-3.37.05-6.06.08-8.09.08-1.61,0-4.4-.03-8.34-.08Z"/>
    <path class="cls-1" d="m329.35,44.76l-.72,10.6c-.03.5-.04.92-.04,1.25-.1,5.26-.42,8.98-.97,11.14-.54,2.17-1.45,4.05-2.71,5.64-1.27,1.6-3.12,3.03-5.55,4.31-2.43,1.28-5.19,2.18-8.28,2.72-3.09.53-6.21.79-9.38.79-2.83,0-5.57-.2-8.2-.6-2.43-.41-4.62-1-6.57-1.77-1.95-.77-3.65-1.68-5.09-2.71-1.32-.97-2.33-1.95-3.04-2.95-.71-1-1.27-2.19-1.67-3.59-.46-1.56-.68-3.25-.68-5.05,0-.6.02-1.52.07-2.75s.17-2.99.35-5.29l.43-5.35,16.16-1.98c-.08,1.35-.15,2.65-.2,3.91-.11,2.66-.17,4.49-.17,5.5,0,1.93.14,3.53.42,4.83.28,1.29.78,2.38,1.52,3.28.73.9,1.75,1.58,3.05,2.03,1.3.46,2.66.68,4.08.68,1.21,0,2.35-.16,3.41-.49.84-.27,1.58-.65,2.24-1.13.58-.45,1.09-.98,1.52-1.59.53-.72,1-1.62,1.4-2.71.41-1.02.71-2.35.91-3.98.23-1.65.53-5.42.91-11.3.03-.47.06-.93.09-1.39l16.71-2.05Z"/>
    <path class="cls-4" d="m386.06,26.49c-1.88,0-4.37-.03-7.48-.08,0,2.16-.08,5.61-.24,10.34l14.46-1.77.69-8.57c-4.1.05-6.57.08-7.43.08Zm-36.33,0c-3.02,0-6.49-.03-10.42-.08v5.92l-.36,9.26,26.43-3.25-6.56-11.93c-3.91.05-6.93.08-9.09.08Z"/>
    <path class="cls-4" d="m432.91,25.42c-7.59,0-13.79,1.29-18.58,3.86-2.01,1.08-3.83,2.32-5.45,3.72l42.44-5.21v-.36c-6.73-1.34-12.87-2.01-18.41-2.01Z"/>
    <path class="cls-1" d="m453.44,50c-.33,3.47-.66,8.38-1,14.73-.34,6.36-.55,11.15-.63,14.39-2.91.54-5.32.92-7.23,1.16-1.91.24-4.21.46-6.89.65-2.69.19-5.08.28-7.18.28-3.44,0-6.82-.28-10.14-.83-3.32-.56-6.28-1.46-8.9-2.7-2.62-1.24-4.81-2.92-6.55-5.05-1.75-2.12-3.1-4.64-4.04-7.55-.95-2.91-1.43-5.93-1.43-9.04,0-5.14,1.28-9.91,3.84-14.31,1.48-2.56,3.34-4.81,5.58-6.74l42.44-5.21c.01,3.6.18,7.59.5,11.98-1.82-.6-3.3-1.06-4.42-1.38-1.13-.32-2.45-.61-3.95-.87-1.51-.27-2.94-.47-4.3-.59-1.35-.13-2.56-.19-3.62-.19-2.78,0-5.42.4-7.9,1.19-2.48.8-4.61,2.03-6.4,3.69-1.78,1.65-3.11,3.63-4,5.94-.89,2.3-1.33,4.73-1.33,7.29s.51,4.93,1.52,6.96c1.01,2.04,2.62,3.59,4.82,4.66,2.2,1.06,4.66,1.59,7.37,1.59,2.25,0,4.72-.33,7.4-.99l.43-8.24c-1.65-.07-2.62-.11-2.93-.11l-4.03.04.27-4.67c.02-.51.06-1.24.11-2.19.05-.94.08-2.24.08-3.89,3.46.05,6.77.08,9.91.08,5.36,0,9.56-.03,12.6-.08Z"/>
    <path class="cls-4" d="m183.41,43.52c-.3,6.09-.52,11.85-.66,17.25l-16.38,2.01c.5-8.24.83-15.48,1.01-21.71,2.65,2.33,6.12,3.76,9.93,3.76,2.17,0,4.24-.47,6.1-1.31Z"/>
    <circle class="cls-3" cx="177.04" cy="31.48" r="11.69"/>
  </g>
  <path class="cls-1" d="m392.8,36.98l-.22,2.74-1.71,31.44-.23,9.08c-3.29-.05-6.37-.08-9.23-.08-2.38,0-5.67.03-9.88.08-1.31-2.49-2.29-4.28-2.92-5.4l-6.37-10.82c-2.1-3.55-4.03-6.94-5.8-10.18-1.16-2.05-2.36-4.31-3.6-6.76l-.82,18-.39,15.16c-3.13-.05-5.52-.08-7.17-.08-1.39,0-3.99.03-7.81.08l.76-7.98,1.48-27.03.06-1.64,26.43-3.25,9.65,17.54,2.23,4.33c.29-4.25.58-10.21.88-17.89.07-2.02.14-3.88.2-5.57l14.46-1.77Z"/>
  <path class="cls-1" d="m267.46,52.37c-.1,1.88-.17,3.57-.23,5.07-.25,6.34-.37,13.94-.37,22.8l-8.29-.08c-1.24,0-4.2.03-8.89.08.63-6.03,1.06-13.04,1.29-21.04h-20.68l-.64,21.04-8.82-.08c-1.11,0-3.82.03-8.13.08l1.47-20.73.03-.6,53.26-6.54Z"/>
  <path class="cls-1" d="m208.47,59.62c-.1,1.84-.17,3.75-.21,5.73-3.6-.07-7-.11-10.22-.11s-6.6.04-10.17.11c.09-1.09.17-2.17.23-3.23l20.37-2.5Z"/>
  <path class="cls-1" d="m182.74,62.77c-.02.56-.04,1.12-.05,1.68-.16,6.16-.23,11.42-.23,15.78l-7.78-.08c-1.52,0-4.63.03-9.34.08.4-5.49.74-10.64,1.02-15.45l16.38-2.01Z"/>
  <path class="cls-1" d="m155.99,66.06c-.08,4.3-.12,9.03-.12,14.18l-8.29-.08c-1.24,0-4.2.03-8.89.08.39-3.69.7-7.74.92-12.17l16.38-2.01Z"/>
  <path class="cls-1" d="m118.96,70.61l-.29,9.63-8.82-.08c-1.11,0-3.82.03-8.13.08l.54-7.58,16.7-2.05Z"/>
  <polyline class="cls-2" points="61.38 77.68 61.36 77.68 40.56 80.24"/>
</svg>